<?xml version="1.0" encoding="UTF-8" standalone="no"?>
<!-- Created with Inkscape (http://www.inkscape.org/) -->

<svg
   xmlns:dc="http://purl.org/dc/elements/1.1/"
   xmlns:cc="http://creativecommons.org/ns#"
   xmlns:rdf="http://www.w3.org/1999/02/22-rdf-syntax-ns#"
   xmlns:svg="http://www.w3.org/2000/svg"
   xmlns="http://www.w3.org/2000/svg"
   xmlns:sodipodi="http://sodipodi.sourceforge.net/DTD/sodipodi-0.dtd"
   xmlns:inkscape="http://www.inkscape.org/namespaces/inkscape"
   width="250.00002"
   height="500.00003"
   viewBox="0 0 66.145836 132.29167"
   version="1.1"
   id="svg8"
   inkscape:version="0.92.3 (2405546, 2018-03-11)"
   sodipodi:docname="grab_left.svg">
  <defs
     id="defs2" />
  <sodipodi:namedview
     id="base"
     pagecolor="#ffffff"
     bordercolor="#666666"
     borderopacity="1.0"
     inkscape:pageopacity="0.0"
     inkscape:pageshadow="2"
     inkscape:zoom="0.7"
     inkscape:cx="463.0417"
     inkscape:cy="410.06152"
     inkscape:document-units="mm"
     inkscape:current-layer="layer1"
     showgrid="false"
     fit-margin-top="0"
     fit-margin-left="0"
     fit-margin-right="0"
     fit-margin-bottom="0"
     units="px"
     inkscape:window-width="1920"
     inkscape:window-height="1016"
     inkscape:window-x="0"
     inkscape:window-y="27"
     inkscape:window-maximized="1"
     inkscape:measure-start="0,0"
     inkscape:measure-end="0,0" />
  <metadata
     id="metadata5">
    <rdf:RDF>
      <cc:Work
         rdf:about="">
        <dc:format>image/svg+xml</dc:format>
        <dc:type
           rdf:resource="http://purl.org/dc/dcmitype/StillImage" />
        <dc:title></dc:title>
      </cc:Work>
    </rdf:RDF>
  </metadata>
  <g
     inkscape:label="Layer 1"
     inkscape:groupmode="layer"
     id="layer1"
     transform="translate(-69.736572,-46.70417)">
    <path
       style="fill:#000000;stroke:#000000;stroke-width:2.11666656;stroke-miterlimit:4;stroke-dasharray:none;stroke-opacity:1"
       d="m 117.49513,170.41048 c 0.46656,-1.11662 1.31625,-5.91762 1.74301,-9.84847 0.63582,-5.85641 -0.20747,-11.99059 -2.21723,-16.12843 -1.14395,-2.35524 -6.18691,-10.21913 -6.79392,-10.59428 -0.17107,-0.10573 -0.43651,-0.0667 -0.58986,0.0866 -0.19539,0.19539 0.55818,1.53062 2.51802,4.46164 4.17335,6.24135 5.39664,9.08149 6.00653,13.94543 0.52207,4.1636 0.11297,10.02759 -1.07247,15.37279 -0.68511,3.08917 -0.70943,3.36359 -0.31037,3.50225 0.19082,0.0663 0.49849,-0.27626 0.71629,-0.79753 z m 15.62833,-4.75298 c 0.0786,-0.20486 -0.22874,-2.26859 -0.683,-4.58606 -1.27424,-6.50067 -3.44199,-12.48837 -5.93654,-16.39778 -1.44379,-2.26267 -4.88145,-5.68975 -7.9429,-7.91844 -4.47551,-3.25811 -5.95313,-4.01391 -5.95313,-3.04502 0,0.13022 1.40277,1.18752 3.11728,2.34955 5.99645,4.0642 9.19085,7.37862 11.40433,11.83283 1.5566,3.13237 3.35133,8.59965 4.13885,12.60818 0.37827,1.92546 0.7718,3.9084 0.8745,4.40653 0.19768,0.95882 0.74104,1.37451 0.98061,0.75021 z m -20.78015,-30.85338 c 0,-0.69291 -2.41039,-6.96391 -5.81176,-15.12024 -1.48679,-3.56527 -2.76813,-6.69956 -2.84739,-6.96509 -0.16169,-0.54163 0.0134,-0.43726 7.46851,4.45134 7.56929,4.96345 8.93402,6.26161 11.62919,11.0619 0.68152,1.21384 1.37711,1.54411 1.29847,0.61652 -0.0877,-1.03415 -2.45553,-4.64779 -4.19583,-6.40335 -2.02447,-2.04221 -4.29027,-3.67934 -12.06733,-8.71914 l -5.12654,-3.32217 -1.65555,-3.89285 c -0.91053,-2.14108 -1.655698,-3.9785 -1.655928,-4.08317 -2.2e-4,-0.10467 0.624668,-0.59057 1.388658,-1.07977 4.4216,-2.831285 6.81084,-7.910171 5.6308,-11.969422 -1.31585,-4.526385 -3.7809,-7.185819 -8.967178,-9.67437 -2.15432,-1.033713 -2.81519,-1.12926 -2.81519,-0.407015 0,0.18046 -0.40896,0.47599 -0.9088,0.656735 -1.26686,0.458104 -4.6351,4.11742 -5.72524,6.220012 -0.33179,1.404416 -1.31284,2.070823 -2.2638,5.762278 -1.23561,4.796462 -0.50205,6.93774 3.26451,9.529212 10.07291,3.64103 9.50574,2.5599 13.368808,10.94229 0.47161,0.922 5.21292,12.35909 7.67062,18.50328 1.56909,3.92267 2.32097,5.1838 2.32097,3.89302 z M 98.360492,102.96799 c 28.191388,61.75964 14.095688,30.87986 0,0 z m -2.77312,-22.595433 c 1.13157,-0.219445 3.99481,1.287805 6.148178,3.236481 1.96227,1.775746 3.66695,4.944078 3.90592,7.259625 0.33685,3.263665 -1.46769,6.721547 -4.78035,9.160177 -1.201408,0.88442 -1.736688,1.12766 -2.216608,1.0072 -0.48084,-0.12068 -0.66468,-0.0365 -0.76595,0.35076 -0.0733,0.28025 -0.3908,0.63413 -0.7056,0.78641 -16.22474,2.30427 -13.21508,-19.137227 -1.58559,-21.800653 z"
       id="path4759"
       inkscape:connector-curvature="0"
       sodipodi:nodetypes="csscccsscccsccscssscsccsccccccccccsscccccscccccscccc" />
  </g>
</svg>
