<?xml version="1.0" encoding="UTF-8" standalone="no"?>
<!-- Created with Inkscape (http://www.inkscape.org/) -->

<svg
   xmlns:dc="http://purl.org/dc/elements/1.1/"
   xmlns:cc="http://creativecommons.org/ns#"
   xmlns:rdf="http://www.w3.org/1999/02/22-rdf-syntax-ns#"
   xmlns:svg="http://www.w3.org/2000/svg"
   xmlns="http://www.w3.org/2000/svg"
   xmlns:sodipodi="http://sodipodi.sourceforge.net/DTD/sodipodi-0.dtd"
   xmlns:inkscape="http://www.inkscape.org/namespaces/inkscape"
   width="250.00002"
   height="500.00003"
   viewBox="0 0 66.145836 132.29167"
   version="1.1"
   id="svg8"
   inkscape:version="0.92.3 (2405546, 2018-03-11)"
   sodipodi:docname="grab_right.svg">
  <defs
     id="defs2" />
  <sodipodi:namedview
     id="base"
     pagecolor="#ffffff"
     bordercolor="#666666"
     borderopacity="1.0"
     inkscape:pageopacity="0.0"
     inkscape:pageshadow="2"
     inkscape:zoom="0.7"
     inkscape:cx="358.75599"
     inkscape:cy="310.06152"
     inkscape:document-units="mm"
     inkscape:current-layer="layer1"
     showgrid="false"
     fit-margin-top="0"
     fit-margin-left="0"
     fit-margin-right="0"
     fit-margin-bottom="0"
     units="px"
     inkscape:window-width="1920"
     inkscape:window-height="1016"
     inkscape:window-x="0"
     inkscape:window-y="27"
     inkscape:window-maximized="1"
     inkscape:measure-start="0,0"
     inkscape:measure-end="0,0" />
  <metadata
     id="metadata5">
    <rdf:RDF>
      <cc:Work
         rdf:about="">
        <dc:format>image/svg+xml</dc:format>
        <dc:type
           rdf:resource="http://purl.org/dc/dcmitype/StillImage" />
        <dc:title />
      </cc:Work>
    </rdf:RDF>
  </metadata>
  <g
     inkscape:label="Layer 1"
     inkscape:groupmode="layer"
     id="layer1"
     transform="translate(-69.736572,-46.70417)">
    <path
       style="fill:#000000;stroke:#000000;stroke-width:2.11666656;stroke-miterlimit:4;stroke-dasharray:none;stroke-opacity:1"
       d="m 88.123885,170.41048 c -0.466557,-1.11662 -1.316253,-5.91762 -1.743015,-9.84847 -0.635816,-5.85641 0.20747,-11.99059 2.217232,-16.12843 1.143947,-2.35524 6.186898,-10.21913 6.793905,-10.59428 0.17107,-0.10573 0.436507,-0.0667 0.589857,0.0866 0.19539,0.19539 -0.558177,1.53062 -2.518008,4.46164 -4.173341,6.24135 -5.396635,9.08149 -6.006521,13.94543 -0.522071,4.1636 -0.112974,10.02759 1.072472,15.37279 0.685109,3.08917 0.709427,3.36359 0.310363,3.50225 -0.190816,0.0663 -0.498487,-0.27626 -0.716285,-0.79753 z M 72.495552,165.6575 c -0.07861,-0.20486 0.228741,-2.26859 0.683005,-4.58606 1.274238,-6.50067 3.441985,-12.48837 5.936538,-16.39778 1.443789,-2.26267 4.881452,-5.68975 7.942902,-7.91844 4.475504,-3.25811 5.953125,-4.01391 5.953125,-3.04502 0,0.13022 -1.402773,1.18752 -3.117275,2.34955 -5.996453,4.0642 -9.190853,7.37862 -11.40433,11.83283 -1.556605,3.13237 -3.351332,8.59965 -4.13885,12.60818 -0.378275,1.92546 -0.771802,3.9084 -0.874503,4.40653 -0.197682,0.95882 -0.741045,1.37451 -0.980612,0.75021 z m 20.780153,-30.85338 c 0,-0.69291 2.410372,-6.96391 5.811721,-15.12024 1.486784,-3.56527 2.768114,-6.69956 2.847374,-6.96509 0.16169,-0.54163 -0.0134,-0.43726 -7.468467,4.45134 -7.56928,4.96345 -8.934014,6.26161 -11.629175,11.0619 -0.681522,1.21384 -1.377116,1.54411 -1.298477,0.61652 0.08767,-1.03415 2.455533,-4.64779 4.195834,-6.40335 2.024466,-2.04221 4.290264,-3.67934 12.0673,-8.71914 l 5.126515,-3.32217 1.65553,-3.89285 c 0.91053,-2.14108 1.6557,-3.9785 1.65593,-4.08317 2.2e-4,-0.10467 -0.62467,-0.59057 -1.38866,-1.07977 -4.42157,-2.831285 -6.810798,-7.910171 -5.630764,-11.969422 1.315844,-4.526385 3.780874,-7.185819 8.967144,-9.67437 2.15432,-1.033713 2.81519,-1.12926 2.81519,-0.407015 0,0.18046 0.40896,0.47599 0.9088,0.656735 1.26686,0.458104 4.6351,4.11742 5.72524,6.220012 0.33179,1.404416 1.31284,2.070823 2.2638,5.762278 1.23561,4.796462 0.50205,6.93774 -3.26451,9.529212 -10.07291,3.64103 -9.50574,2.5599 -13.3688,10.94229 -0.4716,0.922 -5.212888,12.35909 -7.670573,18.50328 -1.569081,3.92267 -2.320952,5.1838 -2.320952,3.89302 z m 13.982745,-31.83613 c -28.191315,61.75964 -14.095619,30.87986 0,0 z m 2.77312,-22.595433 c -1.13157,-0.219445 -3.99481,1.287805 -6.14817,3.236481 -1.96226,1.775746 -3.66693,4.944078 -3.905897,7.259625 -0.33685,3.263665 1.467677,6.721547 4.780317,9.160177 1.20141,0.88442 1.73669,1.12766 2.21661,1.0072 0.48084,-0.12068 0.66468,-0.0365 0.76595,0.35076 0.0733,0.28025 0.3908,0.63413 0.7056,0.78641 16.22474,2.30427 13.21508,-19.137227 1.58559,-21.800653 z"
       id="path4759"
       inkscape:connector-curvature="0"
       sodipodi:nodetypes="csscccsscccsccscssscsccsccccccccccsscccccscccccscccc" />
  </g>
</svg>
